<?xml version="1.0" standalone="no"?>
<svg xmlns="http://www.w3.org/2000/svg" viewBox="0 0 96.881 111.868" width="96.881" height="111.868"><polygon fill="none" stroke="#106b15" stroke-width="3" points="95.381,28.717 95.381,83.151 48.4405,110.368 1.5,83.151 1.5,28.717 48.4405,1.5"></polygon><g fill="#b69040" color="#b69040" transform="translate(30.327292452830186 22.5) scale(0.754717)"><svg width="48.0" height="53.0" x="0.0" y="0.0" viewBox="0 0 48 53"><path fill="currentColor" fill-rule="evenodd" d="M37.438 36.432c-1.614 1.086-2.725.974-3.506.532a38.361 38.361 0 0 1 9.177-9.947c-.351 2.954-2.689 7.41-5.67 9.415zm-26.876 0c-2.982-2.004-5.32-6.46-5.67-9.415a38.36 38.36 0 0 1 9.176 9.947c-.781.442-1.892.554-3.506-.532zm34.317-14.22l-1.436.955a41.329 41.329 0 0 0-11.44 11.386c-.204-.704-.076-1.343.197-2.01.641-1.559 2.25-3.393 4.114-5.518 1.574-1.795 3.405-3.882 5.136-6.357l.001.001c.086-.119.167-.238.246-.357a39.007 39.007 0 0 0 2.249-3.69C46.674 11.508 48 6.071 48 0h-2.945c0 5.402-1.166 9.814-2.86 13.508a31.88 31.88 0 0 0-.833-1.84c-.858-1.792-1.744-3.646-1.744-6.022h-2.945c0 3.044 1.126 5.4 2.032 7.293 1.183 2.474 1.735 3.824.62 5.617-1.16 1.709-2.388 3.233-3.571 4.622-.349-1.304-.996-2.543-1.677-3.845-1.04-1.99-2.117-4.05-2.117-6.44h-2.945c0 3.114 1.302 5.606 2.452 7.805 1.515 2.897 2.244 4.506.872 6.423-1.259 1.504-2.287 2.902-2.863 4.304-.885 2.155-.64 4.132.752 6.015a40.845 40.845 0 0 0-3.96 9.941L24 49.064l-2.268-1.683a40.84 40.84 0 0 0-3.96-9.94c1.393-1.884 1.637-3.86.752-6.016-.576-1.402-1.604-2.8-2.863-4.304-1.372-1.917-.643-3.525.872-6.423 1.15-2.2 2.452-4.691 2.452-7.804H16.04c0 2.39-1.076 4.448-2.117 6.44-.68 1.301-1.328 2.54-1.677 3.844-1.183-1.389-2.41-2.913-3.572-4.622-1.114-1.793-.562-3.143.621-5.617.906-1.893 2.032-4.249 2.032-7.292H8.382c0 2.375-.886 4.229-1.744 6.022a31.777 31.777 0 0 0-.832 1.84C4.11 9.813 2.946 5.401 2.946 0H0c0 6.07 1.326 11.508 4.054 16.622a38.962 38.962 0 0 0 2.249 3.69c.078.119.16.238.246.357 1.732 2.474 3.563 4.561 5.137 6.356 1.864 2.125 3.473 3.96 4.114 5.519.273.666.4 1.305.196 2.009a41.332 41.332 0 0 0-11.44-11.386l-1.435-.956-.719 1.568c-.888 1.937-.561 4.873.899 8.054 1.357 2.958 3.457 5.59 5.617 7.043 2.33 1.567 4.666 1.768 6.635.63a38.21 38.21 0 0 1 3.444 9.085l.125.52L24 52.732l4.878-3.62.125-.52a38.213 38.213 0 0 1 3.444-9.086c1.969 1.139 4.304.938 6.634-.629 2.161-1.452 4.261-4.085 5.618-7.043 1.46-3.18 1.787-6.117.898-8.054l-.718-1.568z"></path></svg></g><path fill="#b69040" fill-rule="nonzero" d="M3.57 15.24L9.15 15.24Q9.99 15.24 10.32 15.08L10.32 15.08L10.38 15.09L10.24 18.53L0 18.53L0 0.25Q0.37 0.27 0.82 0.29L0.82 0.29L1.78 0.31Q2.73 0.34 3.86 0.34L3.86 0.34Q6.99 0.34 10.05 0.23L10.05 0.23Q9.90 1.44 9.90 3.45L9.90 3.45Q9.90 3.66 9.93 3.77L9.93 3.77L9.90 3.81Q9.19 3.61 7.88 3.61L7.88 3.61L3.57 3.61L3.57 7.10L6.81 7.10Q8.31 7.10 8.61 7.01L8.61 7.01L8.65 10.39Q8.00 10.32 6.96 10.32L6.96 10.32L3.57 10.32L3.57 15.24ZM28.97 7.53L29.01 7.56Q28.75 8.03 28.75 9.79L28.75 9.79L28.75 14.03Q28.75 15.96 26.76 17.38L26.76 17.38Q24.69 18.87 21.70 18.87L21.70 18.87Q17.54 18.87 15.07 16.26L15.07 16.26Q12.67 13.77 12.67 9.91L12.67 9.91Q12.67 5.81 15.11 3.08L15.11 3.08Q17.83 0 22.60 0L22.60 0Q25.79 0 27.64 1.23L27.64 1.23L27.43 5.26L27.32 5.29Q26.84 4.46 25.43 3.92L25.43 3.92Q24.09 3.42 22.62 3.42Q21.15 3.42 20.05 3.88Q18.95 4.35 18.18 5.21L18.18 5.21Q16.57 6.97 16.57 9.87L16.57 9.87Q16.57 12.40 17.99 13.93L17.99 13.93Q19.41 15.45 21.66 15.45L21.66 15.45Q24.13 15.45 24.99 14.16L24.99 14.16Q25.27 13.75 25.27 13.23L25.27 13.23L25.27 10.96L23.50 10.96Q22.08 10.96 21.96 11.21L21.96 11.21L21.92 11.20L21.79 7.63Q22.18 7.74 24.90 7.74L24.90 7.74L26.51 7.74Q28.01 7.74 28.97 7.53L28.97 7.53ZM40.82 0L40.82 0Q43.38 0 45.19 0.89L45.19 0.89L45.19 5.07L45.16 5.10Q44.39 3.92 41.93 3.54L41.93 3.54Q41.21 3.42 40.10 3.42Q38.99 3.42 37.93 3.83Q36.86 4.25 36.18 5.02L36.18 5.02Q34.85 6.51 34.85 9.27L34.85 9.27Q34.85 12.48 36.53 14.05L36.53 14.05Q37.93 15.37 40.22 15.37L40.22 15.37Q42.82 15.37 44.43 14.26L44.43 14.26Q45.02 13.86 45.43 13.28L45.43 13.28L45.47 13.30L45.47 17.13Q43.38 18.87 39.84 18.87L39.84 18.87Q35.67 18.87 33.30 16.21L33.30 16.21Q31.04 13.69 31.04 9.52L31.04 9.52Q31.04 5.10 33.52 2.56L33.52 2.56Q36.04 0 40.82 0ZM57.07 0L57.07 0Q59.62 0 61.43 0.89L61.43 0.89L61.43 5.07L61.40 5.10Q60.63 3.92 58.17 3.54L58.17 3.54Q57.45 3.42 56.34 3.42Q55.23 3.42 54.17 3.83Q53.10 4.25 52.42 5.02L52.42 5.02Q51.09 6.51 51.09 9.27L51.09 9.27Q51.09 12.48 52.77 14.05L52.77 14.05Q54.17 15.37 56.46 15.37L56.46 15.37Q59.06 15.37 60.68 14.26L60.68 14.26Q61.26 13.86 61.67 13.28L61.67 13.28L61.71 13.30L61.71 17.13Q59.62 18.87 56.08 18.87L56.08 18.87Q51.91 18.87 49.55 16.21L49.55 16.21Q47.28 13.69 47.28 9.52L47.28 9.52Q47.28 5.10 49.77 2.56L49.77 2.56Q52.28 0 57.07 0Z" transform="translate(17.584, 70.5)"></path></svg>